:SAMPLES-PER-SECOND 30
:FULLY-SPECIFIED
:DEGREES
892
root  -10.7312 20.5212 8.41564 119.065 -82.8773 -28.4052
RightUpLeg  -170.513 -0.694881 31.0391
RightLeg  86.207 0.423147 3.3902
RightFoot  -5.33228 0.112368 -2.90881
RightToes  3.49245e-010 0 -3.6325e-017
Spine  8.58477 -0.611496 31.5328
Spine1  -69.5563 -11.9671 -21.7658
HEad  -16.6293 8.65713 -2.05374
LeftShoulder1  0.0121009 3.95447 12.7363
LeftArm  -80.3771 -40.9519 3.49132
LeftForeArm  -8.94167 -66.3508 -28.4641
LeftHand  0.0397208 8.08307 3.40965
RightShoulder  -0.595037 6.60244 -16.4586
RightArm  -72.4097 14.4474 7.41855
RightForeArm  -19.684 68.3257 33.0886
RightHand  -1.56517 15.987 -8.83886
LeftUpLeg  -160.171 5.29904 -10.6956
LeftLeg  113.197 2.91022 -6.79652
LeftFoot  -26.9604 0.0758469 -0.627517
LeftToes  -5.36635e-011 -6.70219e-011 5.24975e-011
893
root  -11.194 20.4269 7.96064 104.872 -81.5321 -15.4595
RightUpLeg  -170.298 -2.89117 30.2777
RightLeg  89.2237 0.287982 0.990573
RightFoot  -6.92158 0.132668 -4.51141
RightToes  3.49245e-010 0 -3.6325e-017
Spine  14.0501 -2.02478 30.3268
Spine1  -73.6545 -12.2858 -20.1685
HEad  -18.1975 7.15421 -1.87087
LeftShoulder1  0.0166252 4.10242 13.0019
LeftArm  -80.6336 -40.8925 3.11972
LeftForeArm  -8.42295 -67.2715 -29.9224
LeftHand  0.0554593 8.36654 3.71176
RightShoulder  -0.708012 7.67541 -16.9734
RightArm  -72.0108 11.7696 8.18276
RightForeArm  -19.5267 69.8741 36.4273
RightHand  -2.20067 16.4398 -12.0386
LeftUpLeg  -158.749 5.26518 -11.151
LeftLeg  113.817 2.57012 -5.91871
LeftFoot  -27.3382 -0.0961648 -1.85731
LeftToes  -5.36635e-011 -6.70219e-011 5.24975e-011
894
root  -11.7218 20.296 7.5083 100.716 -82.2485 -11.3155
RightUpLeg  -170.634 -3.83418 28.3834
RightLeg  91.4369 0.325236 -0.184401
RightFoot  -8.79825 0.0119576 -3.38294
RightToes  3.49245e-010 0 -3.6325e-017
Spine  15.7872 -2.1379 30.9419
Spine1  -74.3664 -13.2522 -23.1152
HEad  -20.3671 6.18297 -0.8067
LeftShoulder1  0.00913751 3.73349 14.0806
LeftArm  -82.0678 -41.1255 2.83138
LeftForeArm  -7.62936 -67.07 -29.5022
LeftHand  0.0466099 8.25797 3.50518
RightShoulder  -0.792137 8.51612 -17.2553
RightArm  -71.4753 9.91339 8.36032
RightForeArm  -18.1339 69.9493 36.511
RightHand  -1.60747 14.7667 -9.66361
LeftUpLeg  -157.927 5.64348 -13.1842
LeftLeg  114.566 2.47601 -5.54777
LeftFoot  -28.421 -0.260998 -2.85924
LeftToes  -5.36635e-011 -6.70219e-011 5.24975e-011
895
root  -12.3768 20.3288 7.05496 93.4213 -82.6991 -3.50301
RightUpLeg  -170.861 -4.3335 27.3226
RightLeg  93.3636 0.421786 -1.03227
RightFoot  -11.1386 -0.0641824 -3.45756
RightToes  3.49245e-010 0 -3.6325e-017
Spine  17.3772 -2.34919 31.7869
Spine1  -75.8907 -14.3423 -25.1893
HEad  -20.6916 5.93099 -0.940687
LeftShoulder1  0.00497139 3.64603 13.4671
LeftArm  -83.1378 -42.273 4.52885
LeftForeArm  -8.95017 -65.8969 -27.7545
LeftHand  0.0525836 8.86605 3.18881
RightShoulder  -0.94601 9.18327 -18.2434
RightArm  -71.2807 10.2018 10.4037
RightForeArm  -18.3649 69.8794 36.3614
RightHand  -1.76971 15.2043 -10.3537
LeftUpLeg  -156.329 6.15793 -14.4992
LeftLeg  114.386 2.49524 -5.64313
LeftFoot  -29.7814 -0.597651 -4.79617
LeftToes  -5.36635e-011 -6.70219e-011 5.24975e-011
896
root  -13.1732 20.537 6.48303 77.1011 -82.9319 14.1076
RightUpLeg  -171.249 -5.45811 26.3068
RightLeg  95.0241 0.551687 -1.86526
RightFoot  -14.5051 -0.15892 -2.14215
RightToes  3.49245e-010 0 -3.6325e-017
Spine  18.7913 -2.76184 30.6084
Spine1  -78.6597 -14.9501 -24.5328
HEad  -20.7484 5.08763 -0.747405
LeftShoulder1  -0.0111869 3.16297 13.2984
LeftArm  -83.1014 -43.1147 4.85323
LeftForeArm  -10.787 -64.7136 -26.2383
LeftHand  0.0667561 8.90077 3.61141
RightShoulder  -1.13765 9.89124 -19.4248
RightArm  -70.701 10.3314 12.3875
RightForeArm  -18.8052 69.5631 35.646
RightHand  -1.89611 15.8396 -10.7474
LeftUpLeg  -154.43 5.98997 -16.1524
LeftLeg  113.154 2.83482 -6.643
LeftFoot  -30.6429 -0.89178 -6.30854
LeftToes  -5.36635e-011 -6.70219e-011 5.24975e-011
897
root  -14.0115 20.6472 6.09118 71.8893 -84.4692 19.5386
RightUpLeg  -170.075 -5.03137 25.2936
RightLeg  96.2912 0.537737 -1.42106
RightFoot  -17.087 -0.179989 -1.2883
RightToes  3.49245e-010 0 -3.6325e-017
Spine  17.6539 -1.67406 33.7918
Spine1  -76.503 -15.8187 -29.8073
HEad  -21.4268 4.95955 -0.199221
LeftShoulder1  -0.0293033 2.71601 13.8915
LeftArm  -82.2029 -42.9346 4.27613
LeftForeArm  -11.3733 -63.7118 -24.9999
LeftHand  0.0695588 8.92167 3.68011
RightShoulder  -1.24746 10.344 -20.0154
RightArm  -69.8251 11.0388 13.1813
RightForeArm  -19.9902 68.7503 33.9692
RightHand  -1.7847 15.8513 -10.1363
LeftUpLeg  -152.443 7.44387 -18.5583
LeftLeg  113.226 2.92485 -6.82976
LeftFoot  -31.5947 -1.25263 -8.08817
LeftToes  -5.36635e-011 -6.70219e-011 5.24975e-011
898
root  -15.0303 21.0591 5.59549 49.3065 -83.8836 45.404
RightUpLeg  -171.104 -5.8743 24.3461
RightLeg  96.8986 0.610709 -1.78381
RightFoot  -20.0618 -0.172491 -0.474352
RightToes  3.49245e-010 0 -3.6325e-017
Spine  17.1812 -0.85927 35.7552
Spine1  -79.1887 -17.0356 -32.0109
HEad  -21.6376 4.42047 0.0549058
LeftShoulder1  -0.0541504 2.14058 14.2134
LeftArm  -80.5733 -42.851 3.09334
LeftForeArm  -11.8127 -62.6131 -23.734
LeftHand  0.0463313 9.02827 2.89372
RightShoulder  -1.13356 10.4111 -19.0283
RightArm  -68.3269 12.4576 11.5014
RightForeArm  -21.8324 67.4246 31.4972
RightHand  -1.59935 15.4308 -9.31248
LeftUpLeg  -151.242 6.33422 -20.5267
LeftLeg  110.736 3.12795 -8.12197
LeftFoot  -30.5973 -1.46987 -9.72064
LeftToes  -5.36635e-011 -6.70219e-011 5.24975e-011
899
root  -16.1624 21.5509 5.34534 28.4129 -83.8189 70.0886
RightUpLeg  -171.694 -6.53848 22.8045
RightLeg  96.5282 0.575741 -1.62187
RightFoot  -22.7251 -0.099902 0.52867
RightToes  3.49245e-010 0 -3.6325e-017
Spine  15.2241 1.13581 43.743
Spine1  -79.1994 -19.611 -41.1672
HEad  -22.1882 4.70281 0.537077
LeftShoulder1  -0.069882 1.5299 13.7117
LeftArm  -77.9499 -42.2769 2.71876
LeftForeArm  -14.0357 -61.4517 -22.6825
LeftHand  0.0388445 9.47768 2.40898
RightShoulder  -1.10797 10.4014 -18.8188
RightArm  -66.4235 13.5943 10.4167
RightForeArm  -22.944 66.6181 30.2033
RightHand  -1.52236 15.316 -8.93275
LeftUpLeg  -149.815 5.11399 -22.6559
LeftLeg  108.131 3.14476 -9.2592
LeftFoot  -29.9188 -1.73054 -11.6629
LeftToes  -5.36635e-011 -6.70219e-011 5.24975e-011
900
root  -16.9048 21.7284 5.0034 10.8737 -84.138 86.0108
RightUpLeg  -168.482 -7.64013 19.7205
RightLeg  97.2756 0.695541 -2.20972
RightFoot  -24.507 0.0768518 2.11754
RightToes  3.49245e-010 0 -3.6325e-017
Spine  10.6536 4.86668 40.5938
Spine1  -73.4132 -15.1668 -39.8715
HEad  -21.2191 5.95102 0.55645
LeftShoulder1  -0.0526835 1.34101 12.4389
LeftArm  -75.3657 -42.3401 3.14714
LeftForeArm  -15.4663 -59.9394 -21.3018
LeftHand  -0.00517969 8.92263 1.36873
RightShoulder  -0.97411 9.90872 -18.0232
RightArm  -64.5812 15.7376 8.84413
RightForeArm  -25.0835 65.3685 28.3886
RightHand  -1.56322 15.3014 -9.18575
LeftUpLeg  -147.318 8.01842 -23.6542
LeftLeg  108.342 3.72004 -10.6861
LeftFoot  -27.9433 -1.91991 -14.1941
LeftToes  -5.36635e-011 -6.70219e-011 5.24975e-011
901
root  -18.1374 22.2916 4.92254 -31.0461 -82.3582 131.082
RightUpLeg  -168.122 -8.46868 16.2465
RightLeg  95.6613 0.379678 -0.477794
RightFoot  -26.1278 0.210764 2.98742
RightToes  3.49245e-010 0 -3.6325e-017
Spine  1.43949 14.0653 59.5447
Spine1  -57.985 -12.852 -65.5095
HEad  -20.0865 6.48902 -0.147995
LeftShoulder1  -0.0446297 1.06534 11.7605
LeftArm  -73.4892 -42.2146 3.22029
LeftForeArm  -16.9519 -58.8033 -20.4184
LeftHand  -0.000261976 9.0265 1.36815
RightShoulder  -0.991452 9.85873 -18.2001
RightArm  -63.1589 16.7387 8.06718
RightForeArm  -27.1953 64.5288 27.3385
RightHand  -1.77582 14.1705 -10.8962
LeftUpLeg  -145.546 7.57256 -27.8761
LeftLeg  106.289 3.95865 -12.6616
LeftFoot  -23.9862 -1.71365 -16.8739
LeftToes  -5.36635e-011 -6.70219e-011 5.24975e-011
902
root  -19.3199 23.019 4.70534 -29.4731 -77.9434 133.108
RightUpLeg  -168.576 -11.2885 14.7571
RightLeg  94.0048 0.279205 0.339782
RightFoot  -27.9957 0.365582 3.79714
RightToes  3.49245e-010 0 -3.6325e-017
Spine  -4.29819 25.1188 76.0773
Spine1  -47.6917 -5.2018 -84.3777
HEad  -19.132 6.75801 -0.866229
LeftShoulder1  -0.0346672 0.905715 11.1842
LeftArm  -72.7997 -42.6594 3.33825
LeftForeArm  -17.7876 -57.2226 -19.1761
LeftHand  -0.0300732 7.62788 0.543829
RightShoulder  -1.04393 9.77358 -18.7027
RightArm  -62.1908 17.3582 7.86484
RightForeArm  -27.8259 63.8785 26.5225
RightHand  -1.92425 14.6664 -11.5035
LeftUpLeg  -145.176 5.62441 -29.5081
LeftLeg  102.93 4.23455 -16.5325
LeftFoot  -13.5127 -0.310088 -20.6477
LeftToes  -5.36635e-011 -6.70219e-011 5.24975e-011
903
root  -20.4447 23.6889 4.41645 -27.622 -73.4054 135.23
RightUpLeg  -169.765 -14.048 13.6287
RightLeg  92.3145 0.193625 1.42652
RightFoot  -29.2473 0.499181 4.43421
RightToes  3.49245e-010 0 -3.6325e-017
Spine  -11.3486 42.0371 94.1581
Spine1  -35.7698 9.76815 -103.592
HEad  -18.1478 7.13315 -1.46542
LeftShoulder1  -0.0500885 0.9305 11.8922
LeftArm  -72.1917 -42.9832 2.88244
LeftForeArm  -18.2848 -56.4061 -18.6024
LeftHand  -0.00162586 8.7754 1.52543
RightShoulder  -0.94749 9.37368 -18.1337
RightArm  -61.4863 18.4885 7.31
RightForeArm  -28.5921 63.0663 25.5519
RightHand  -1.90729 14.4696 -11.5291
LeftUpLeg  -146.618 3.45488 -31.1559
LeftLeg  99.5638 4.22475 -20.9451
LeftFoot  1.94309 2.60061 -22.1829
LeftToes  -5.36635e-011 -6.70219e-011 5.24975e-011
904
root  -21.1588 24.1097 4.18739 -26.1457 -70.907 134.846
RightUpLeg  -169.763 -15.9093 13.5248
RightLeg  91.8733 0.153887 2.26427
RightFoot  -29.2229 0.60377 5.0986
RightToes  3.49245e-010 0 -3.6325e-017
Spine  -15.1406 49.3329 97.1315
Spine1  -31.7467 17.0463 -105.549
HEad  -17.9437 7.892 -2.44668
LeftShoulder1  -0.0437043 0.655197 11.4043
LeftArm  -72.1098 -43.189 3.78364
LeftForeArm  -19.1178 -55.4113 -17.9444
LeftHand  0.00408264 8.76255 1.69359
RightShoulder  -0.97258 9.28261 -18.4158
RightArm  -61.735 18.5495 6.72569
RightForeArm  -29.1974 62.7338 25.1949
RightHand  -1.90883 16.1076 -10.6777
LeftUpLeg  -148.82 2.83789 -31.1586
LeftLeg  98.2904 4.13846 -23.021
LeftFoot  15.1434 4.72709 -20.4602
LeftToes  -5.36635e-011 -6.70219e-011 5.24975e-011
905
root  -21.9709 24.7191 3.95938 -17.5893 -67.8046 129.641
RightUpLeg  -171.888 -17.7928 16.262
RightLeg  90.6747 0.15149 3.01751
RightFoot  -29.5877 0.667851 5.41014
RightToes  3.49245e-010 0 -3.6325e-017
Spine  -8.79677 57.1605 115.362
Spine1  -30.3406 23.7995 -116.956
HEad  -18.0383 8.13717 -3.64971
LeftShoulder1  -0.0439678 0.299884 11.2485
LeftArm  -72.3321 -42.9833 4.57666
LeftForeArm  -19.7553 -54.9433 -17.6656
LeftHand  0.00607713 8.72488 1.77741
RightShoulder  -0.979569 9.02879 -18.6584
RightArm  -63.1145 18.4677 6.42208
RightForeArm  -27.786 62.7635 25.1524
RightHand  -1.69602 14.9017 -10.0824
LeftUpLeg  -151.489 -1.37929 -30.6672
LeftLeg  96.2125 2.74434 -19.3951
LeftFoot  16.5544 3.05589 -12.4061
LeftToes  -5.36635e-011 -6.70219e-011 5.24975e-011
906
root  -22.3313 25.1252 3.46991 -8.97839 -65.9427 120.966
RightUpLeg  -171.849 -19.059 18.8581
RightLeg  90.9255 0.217394 1.63874
RightFoot  -30.2066 0.662005 5.21611
RightToes  3.49245e-010 0 -3.6325e-017
Spine  5.55918 48.1382 123.571
Spine1  -39.3606 17.1104 -115.453
HEad  -17.7636 7.77058 -4.83974
LeftShoulder1  -0.0344279 0.0552594 10.8429
LeftArm  -72.4856 -42.8245 5.24103
LeftForeArm  -20.2997 -55.0413 -17.7682
LeftHand  0.00529276 9.43063 1.5566
RightShoulder  -1.06068 8.90957 -19.4858
RightArm  -64.0143 17.4961 7.21497
RightForeArm  -25.907 63.5186 25.9388
RightHand  -1.54669 13.8474 -9.71121
LeftUpLeg  -155.032 -3.91144 -29.5923
LeftLeg  94.0451 0.736213 -10.7513
LeftFoot  11.5956 0.847736 -4.62318
LeftToes  -5.36635e-011 -6.70219e-011 5.24975e-011
